<?xml version="1.0" standalone="no"?>
<!DOCTYPE svg PUBLIC "-//W3C//DTD SVG 20010904//EN"
 "http://www.w3.org/TR/2001/REC-SVG-20010904/DTD/svg10.dtd">
<svg version="1.0" xmlns="http://www.w3.org/2000/svg"
 width="225.000000pt" height="225.000000pt" viewBox="0 0 225.000000 225.000000"
 preserveAspectRatio="xMidYMid meet">
<metadata>
Created by potrace 1.11, written by Peter Selinger 2001-2013
</metadata>
<g transform="translate(0.000000,225.000000) scale(0.100000,-0.100000)"
fill="#000000" stroke="none">
<path d="M384 2230 c-92 -19 -256 -127 -346 -228 -32 -35 -38 -49 -38 -86 0
-28 7 -52 20 -69 32 -40 235 -116 353 -132 l47 -6 -20 -29 c-33 -47 -51 -109
-60 -211 -11 -119 -39 -206 -93 -284 -110 -161 -128 -193 -153 -264 -35 -101
-44 -272 -20 -376 56 -239 257 -447 496 -511 81 -21 242 -24 328 -5 34 8 102
33 150 56 l87 43 33 -29 c65 -57 130 -83 207 -83 47 -1 82 5 107 17 35 18 38
18 70 1 22 -12 56 -18 103 -18 96 -1 165 32 254 121 107 108 196 260 287 488
41 103 48 132 52 206 4 70 0 99 -17 150 -68 201 -262 305 -476 255 -33 -8 -80
-24 -105 -35 -68 -31 -73 -29 -68 29 4 37 15 65 42 104 41 60 44 83 15 120
-65 82 -181 -27 -212 -198 -6 -34 -11 -62 -12 -64 -1 -1 -19 5 -41 15 -21 9
-70 24 -109 33 l-70 17 -18 54 c-11 30 -23 99 -27 154 -5 59 -17 124 -30 158
-37 100 -126 191 -225 233 -19 8 -35 20 -35 27 0 22 70 120 131 184 67 69 74
99 34 138 -27 28 -54 31 -93 11 -27 -15 -92 -79 -129 -128 l-21 -28 -12 29
c-43 104 -234 174 -386 141z m185 -163 c19 -7 43 -24 54 -39 20 -26 20 -27 0
-60 -12 -21 -40 -44 -78 -63 -77 -39 -165 -41 -278 -6 -42 14 -77 28 -77 32 0
18 141 117 195 137 40 14 142 14 184 -1z m289 -366 c85 -44 122 -111 133 -239
7 -82 26 -176 44 -222 4 -11 -4 -19 -30 -28 -56 -21 -141 -106 -175 -175 -63
-130 -61 -229 10 -405 68 -171 110 -257 175 -356 16 -25 16 -25 -34 -51 -146
-74 -325 -73 -480 2 -83 40 -184 142 -226 227 -36 72 -65 182 -65 246 0 55 27
166 53 223 14 29 48 84 77 122 98 131 134 225 155 398 8 73 20 128 30 145 40
63 91 103 155 123 49 15 139 10 178 -10z m445 -635 c100 -40 150 -49 250 -44
73 4 104 10 152 33 72 33 182 44 240 25 59 -19 121 -88 140 -155 21 -72 15
-115 -35 -243 -125 -323 -271 -512 -394 -512 -31 0 -39 6 -61 40 -48 76 -111
76 -154 -1 -19 -34 -27 -39 -57 -39 -79 0 -151 58 -238 190 -94 142 -206 411
-206 492 0 93 56 183 134 219 60 27 153 25 229 -5z"/>
</g>
</svg>
